<svg width="138" height="38" viewBox="0 0 138 38" fill="none" xmlns="http://www.w3.org/2000/svg">
<path d="M31.2612 37.0001L16.6212 20.9681L30.3012 4.84009H20.7972L9.85325 17.6081H8.70125V4.84009H0.78125V37.0001H8.70125V24.9041H10.3812L20.8932 37.0001H31.2612Z" fill="#FFA3A3"/>
<path d="M57.6741 12.9041H49.9941V14.9681C48.0741 13.1441 45.5781 12.1841 42.5061 12.1841C39.2421 12.1841 36.4581 13.3841 34.1541 15.7841C31.8501 18.1841 30.7461 21.2561 30.7461 24.9521C30.7461 28.6961 31.8501 31.7681 34.1541 34.1681C36.4581 36.5681 39.2421 37.7201 42.5061 37.7201C45.5781 37.7201 48.0741 36.8081 49.9941 34.9361V37.0001H57.6741V12.9041ZM44.0901 31.1921C42.3621 31.1921 40.9701 30.6161 39.9141 29.4641C38.8101 28.3121 38.2821 26.8241 38.2821 24.9521C38.2821 23.1281 38.8101 21.6401 39.9141 20.4881C40.9701 19.3361 42.3621 18.7121 44.0901 18.7121C45.6741 18.7121 47.0661 19.3361 48.2181 20.4881C49.3701 21.6881 49.9941 23.1761 49.9941 24.9521C49.9941 26.7761 49.3701 28.3121 48.2181 29.4641C47.0661 30.6161 45.6741 31.1921 44.0901 31.1921Z" fill="#FFA3A3"/>
<path d="M79.2027 12.5681C75.6507 12.5681 72.8668 14.2481 70.8988 17.5121V12.9041H63.2188V37.0001H70.8988V29.4641C70.8988 23.4641 73.6347 20.4401 79.2027 20.4401H80.5948L80.9308 12.7601C80.4028 12.6641 79.8267 12.5681 79.2027 12.5681Z" fill="#FFA3A3"/>
<path d="M99.2919 12.1841C96.2679 12.1841 93.7719 13.1921 91.8519 15.2081V0.0400391H84.1719V37.0001H91.8519V25.8161C91.8519 23.6081 92.2839 21.9281 93.1479 20.7761C94.0119 19.6721 95.2599 19.0961 96.7959 19.0961C98.0439 19.0961 99.0519 19.5761 99.8199 20.4401C100.588 21.3041 100.972 22.4561 100.972 23.8481V37.0001H108.604V22.2161C108.604 19.2401 107.74 16.7921 106.012 14.9681C104.284 13.1441 102.076 12.1841 99.2919 12.1841Z" fill="#FFA3A3"/>
<path d="M137.799 12.9041H130.119V24.0881C130.119 26.3921 129.639 28.0721 128.775 29.1761C127.911 30.2801 126.663 30.8081 125.127 30.8081C123.879 30.8081 122.919 30.3761 122.151 29.5121C121.383 28.6481 120.999 27.4961 120.999 26.0561V12.9041H113.367V27.6881C113.367 30.7121 114.183 33.1601 115.911 34.9841C117.639 36.8081 119.895 37.7201 122.727 37.7201C125.703 37.7201 128.199 36.7121 130.119 34.6961V37.0001H137.799V12.9041Z" fill="#FFA3A3"/>
</svg>
